<svg width="64" height="64" viewBox="0 0 64 64" fill="none" xmlns="http://www.w3.org/2000/svg">
<rect width="64" height="64" rx="32" fill="#FB8C00"/>
<path d="M24.125 45.5L23.75 42.2L28.025 30.425C28.4 30.775 28.8063 31.0687 29.2438 31.3062C29.6813 31.5437 30.15 31.725 30.65 31.85L26.525 43.175L24.125 45.5ZM39.875 45.5L37.475 43.175L33.35 31.85C33.85 31.725 34.3188 31.5437 34.7563 31.3062C35.1938 31.0687 35.6 30.775 35.975 30.425L40.25 42.2L39.875 45.5ZM32 30.5C30.75 30.5 29.6875 30.0625 28.8125 29.1875C27.9375 28.3125 27.5 27.25 27.5 26C27.5 25.025 27.7812 24.1562 28.3438 23.3938C28.9062 22.6313 29.625 22.1 30.5 21.8V18.5H33.5V21.8C34.375 22.1 35.0938 22.6313 35.6562 23.3938C36.2188 24.1562 36.5 25.025 36.5 26C36.5 27.25 36.0625 28.3125 35.1875 29.1875C34.3125 30.0625 33.25 30.5 32 30.5ZM32 27.5C32.425 27.5 32.7812 27.3563 33.0688 27.0688C33.3563 26.7812 33.5 26.425 33.5 26C33.5 25.575 33.3563 25.2188 33.0688 24.9313C32.7812 24.6438 32.425 24.5 32 24.5C31.575 24.5 31.2188 24.6438 30.9313 24.9313C30.6438 25.2188 30.5 25.575 30.5 26C30.5 26.425 30.6438 26.7812 30.9313 27.0688C31.2188 27.3563 31.575 27.5 32 27.5Z" fill="white"/>
</svg>
